# xmcd
#
# Track frame offsets:
#	150
#	26221
#	47473
#	69997
#	95509
#	123085
#	141037
#
# Disc length: 2060 seconds
#
# Revision: 1
# Processed by: cddbd v1.5.1PL2 Copyright (c) Steve Scherf et al.
# Submitted via: audiograbber 1.83.01
#
DISCID=56080a07
DTITLE=Sonny Griffin - Soul Shadows
DYEAR=2000
DGENRE=Soul
TTITLE0=Star
TTITLE1=In my heart tonight
TTITLE2=Creepin
TTITLE3=Put your trust in me
TTITLE4=Time to move on
TTITLE5=Right back (to where I started from)
TTITLE6=King for a day
EXTD=Sonny Griffin, vocals, Guitar\nTom Beek, saxophone\nArjen Mooijer, keyboar
EXTD=ds\nEric Rutjes, guitar\nJerome Lee, bass guitar\nGeorge Pelupessy, percus
EXTD=sion\nDave van Beek, drums\n\nRecorded live at theater De Krakeling in Ams
EXTD=terdam, november 2000.  Newago Records, Amsterdam.\n\nhttp://www.sonnygrif
EXTD=fin.nl/\n
EXTT0=music and lyrics Sonny Griffin
EXTT1=music and lyrics Sonny Griffin
EXTT2=music and lyrics Stevie Wonder
EXTT3=music and lyrics Sonny Griffin
EXTT4=music and lyrics Sonny Griffin
EXTT5=music and lyrics Sonny Grifffin
EXTT6=music and lyrics Sonny Griffin
PLAYORDER=
